<svg xmlns="http://www.w3.org/2000/svg" viewBox="0 0 1400 900" fill="none" aria-hidden="true">
  <g stroke="#ffffff" stroke-linecap="round" stroke-linejoin="round">
    <!-- 'MÅnAW⁄	íÈÛ¿‡kcâp[ -->
    <g stroke-opacity="0.5">
      <line x1="88" y1="132" x2="124" y2="132" stroke-width="2.3"/>
      <line x1="106" y1="114" x2="106" y2="150" stroke-width="2.3"/>
      <line x1="268" y1="96" x2="308" y2="96" stroke-width="2.6"/>
      <line x1="288" y1="76" x2="288" y2="116" stroke-width="2.6"/>
      <line x1="420" y1="210" x2="454" y2="210" stroke-width="2.2"/>
      <line x1="437" y1="193" x2="437" y2="227" stroke-width="2.2"/>
      <line x1="612" y1="68" x2="652" y2="68" stroke-width="2.4"/>
      <line x1="632" y1="48" x2="632" y2="88" stroke-width="2.4"/>
      <line x1="780" y1="280" x2="820" y2="280" stroke-width="2.5"/>
      <line x1="800" y1="260" x2="800" y2="300" stroke-width="2.5"/>
      <line x1="980" y1="140" x2="1018" y2="140" stroke-width="2.3"/>
      <line x1="999" y1="121" x2="999" y2="159" stroke-width="2.3"/>
      <line x1="1180" y1="320" x2="1220" y2="320" stroke-width="2.4"/>
      <line x1="1200" y1="300" x2="1200" y2="340" stroke-width="2.4"/>
      <line x1="1320" y1="88" x2="1358" y2="88" stroke-width="2.2"/>
      <line x1="1339" y1="70" x2="1339" y2="106" stroke-width="2.2"/>
    </g>
    <g stroke-opacity="0.38">
      <line x1="180" y1="380" x2="212" y2="380" stroke-width="2"/>
      <line x1="196" y1="364" x2="196" y2="396" stroke-width="2"/>
      <line x1="340" y1="520" x2="378" y2="520" stroke-width="2.4"/>
      <line x1="359" y1="501" x2="359" y2="539" stroke-width="2.4"/>
      <line x1="520" y1="400" x2="556" y2="400" stroke-width="2.1"/>
      <line x1="538" y1="382" x2="538" y2="418" stroke-width="2.1"/>
      <line x1="720" y1="520" x2="758" y2="520" stroke-width="2.3"/>
      <line x1="739" y1="501" x2="739" y2="539" stroke-width="2.3"/>
      <line x1="900" y1="420" x2="936" y2="420" stroke-width="2"/>
      <line x1="918" y1="402" x2="918" y2="438" stroke-width="2"/>
      <line x1="1080" y1="580" x2="1116" y2="580" stroke-width="2.2"/>
      <line x1="1098" y1="562" x2="1098" y2="598" stroke-width="2.2"/>
      <line x1="1240" y1="720" x2="1280" y2="720" stroke-width="2.5"/>
      <line x1="1260" y1="698" x2="1260" y2="742" stroke-width="2.5"/>
      <line x1="60" y1="620" x2="98" y2="620" stroke-width="2.1"/>
      <line x1="79" y1="601" x2="79" y2="639" stroke-width="2.1"/>
      <line x1="240" y1="780" x2="276" y2="780" stroke-width="2"/>
      <line x1="258" y1="762" x2="258" y2="798" stroke-width="2"/>
      <line x1="560" y1="720" x2="598" y2="720" stroke-width="2.3"/>
      <line x1="579" y1="699" x2="579" y2="741" stroke-width="2.3"/>
      <line x1="860" y1="780" x2="898" y2="780" stroke-width="2.2"/>
      <line x1="879" y1="760" x2="879" y2="800" stroke-width="2.2"/>
    </g>
  </g>
</svg>
